<svg width="23" height="20" viewBox="0 0 23 20" fill="none" xmlns="http://www.w3.org/2000/svg">
<path d="M6.3669 14.3062C5.23857 15.1876 3.9435 15.8343 2.55873 16.2077C2.4062 16.2627 2.27442 16.3632 2.1813 16.4954C2.08816 16.6275 2.03821 16.7849 2.03821 16.9464C2.03821 17.1077 2.08816 17.2652 2.1813 17.3972C2.27442 17.5294 2.4062 17.6299 2.55873 17.6849C13.4934 22.148 20.446 15.2491 19.3874 7.59586L21.5714 4.6676L18.2018 3.90269C17.7652 2.27354 16.4249 1.32315 14.9247 1.05096C13.4245 0.778747 11.3678 1.62842 10.2108 2.85305C9.48086 3.95276 9.25192 5.53376 9.96928 7.59572C9.96928 7.59572 7.23597 8.28734 2.59033 3.74568C2.48288 3.64016 2.34724 3.56748 2.19954 3.53626C2.05182 3.50503 1.89822 3.51655 1.75688 3.56947C1.61555 3.62239 1.49243 3.71446 1.4021 3.83482C1.31178 3.95518 1.25802 4.09875 1.2472 4.24856C0.755983 6.25671 1.0018 8.37329 1.94042 10.2172C2.87903 12.0611 4.44873 13.5111 6.3669 14.3062Z" stroke="#2F80ED" stroke-linecap="round" stroke-linejoin="round"/>
</svg>
