<svg width="24" height="24" viewBox="0 0 24 24" fill="none" xmlns="http://www.w3.org/2000/svg">
<path d="M1.64549 17.6031C1.90972 20.0729 3.89606 22.0592 6.36457 22.3344C8.19808 22.5387 10.0806 22.7143 12 22.7143C13.9194 22.7143 15.8019 22.5387 17.6354 22.3344C20.104 22.0592 22.0903 20.0729 22.3545 17.6031C22.5495 15.78 22.7143 13.9082 22.7143 12C22.7143 10.0917 22.5495 8.21996 22.3545 6.3968C22.0903 3.92711 20.104 1.94075 17.6354 1.66561C15.8019 1.46123 13.9194 1.28571 12 1.28571C10.0806 1.28571 8.19808 1.46123 6.36457 1.66561C3.89606 1.94075 1.90972 3.92711 1.64549 6.3968C1.45043 8.21996 1.28572 10.0917 1.28572 12C1.28572 13.9082 1.45044 15.78 1.64549 17.6031Z" fill="white"/>
<path d="M1.64549 17.6031C1.90972 20.0729 3.89606 22.0592 6.36457 22.3344C8.19808 22.5387 10.0806 22.7143 12 22.7143C13.9194 22.7143 15.8019 22.5387 17.6354 22.3344C20.1039 22.0592 22.0903 20.0729 22.3545 17.6031C22.5495 15.78 22.7143 13.9082 22.7143 12C22.7143 10.0917 22.5495 8.21996 22.3545 6.3968C22.0903 3.92711 20.1039 1.94075 17.6354 1.66561C15.8019 1.46123 13.9194 1.28571 12 1.28571C10.0806 1.28571 8.19808 1.46123 6.36457 1.66561C3.89606 1.94075 1.90972 3.92711 1.64549 6.3968C1.45043 8.21996 1.28572 10.0917 1.28572 12C1.28572 13.9082 1.45044 15.78 1.64549 17.6031Z" stroke="#4147D5" stroke-width="1.71429"/>
<path d="M15 11.1429C16.6569 11.1429 18 9.79971 18 8.14285C18 6.486 16.6569 5.14285 15 5.14285C13.3431 5.14285 12 6.486 12 8.14285C12 9.79971 13.3431 11.1429 15 11.1429Z" fill="#D7E0FF" stroke="#4147D5" stroke-width="1.71429" stroke-linecap="round" stroke-linejoin="round"/>
<path d="M6.36456 22.3344C3.89607 22.0593 1.90973 20.0729 1.64549 17.6032C1.48522 16.1052 1.34543 14.5743 1.30067 13.0174C1.99875 12.9089 2.70449 12.8553 3.41143 12.8571C6.40203 12.7895 9.31939 13.7866 11.643 15.6706C13.7979 17.4178 15.3121 19.8225 15.9609 22.5077C14.6613 22.6288 13.3396 22.7143 12 22.7143C10.0806 22.7143 8.19807 22.5388 6.36456 22.3344Z" fill="#D7E0FF" stroke="#4147D5" stroke-width="1.71429" stroke-linecap="round" stroke-linejoin="round"/>
<path d="M15.9609 22.5077C16.5233 22.4552 17.0816 22.3961 17.6354 22.3344C20.1039 22.0592 22.0903 20.0729 22.3545 17.6031C22.3838 17.329 22.4126 17.0537 22.44 16.7774C21.269 16.4508 20.0578 16.2851 18.84 16.2857C16.9953 16.2817 15.1693 16.6551 13.4743 17.3828V17.4967C14.6625 18.9535 15.5156 20.6645 15.9609 22.5077Z" fill="#D7E0FF" stroke="#4147D5" stroke-width="1.71429" stroke-linecap="round" stroke-linejoin="round"/>
</svg>
