<svg width="23" height="25" viewBox="0 0 23 25" fill="none" xmlns="http://www.w3.org/2000/svg">
<path d="M8.73495 4.35715L9.47209 2.45429C9.59641 2.13211 9.81513 1.85499 10.0996 1.65923C10.3841 1.46346 10.721 1.35817 11.0664 1.35715H12.4721C12.8174 1.35817 13.1544 1.46346 13.4389 1.65923C13.7233 1.85499 13.9421 2.13211 14.0664 2.45429L14.8035 4.35715L17.3064 5.79715L19.3292 5.48858C19.6661 5.44286 20.0089 5.4983 20.3141 5.64787C20.6194 5.79744 20.8732 6.03438 21.0435 6.32858L21.7292 7.52858C21.9049 7.82746 21.9859 8.1726 21.9614 8.51844C21.9369 8.86428 21.8082 9.19457 21.5921 9.46572L20.3407 11.06V13.94L21.6264 15.5343C21.8424 15.8054 21.9712 16.1357 21.9957 16.4816C22.0202 16.8274 21.9392 17.1725 21.7635 17.4714L21.0778 18.6714C20.9075 18.9656 20.6536 19.2026 20.3484 19.3521C20.0432 19.5017 19.7003 19.5572 19.3635 19.5114L17.3407 19.2029L14.8378 20.6429L14.1007 22.5457C13.9763 22.8679 13.7576 23.145 13.4731 23.3408C13.1887 23.5366 12.8517 23.6418 12.5064 23.6429H11.0664C10.721 23.6418 10.3841 23.5366 10.0996 23.3408C9.81513 23.145 9.59641 22.8679 9.47209 22.5457L8.73495 20.6429L6.23209 19.2029L4.20923 19.5114C3.8724 19.5572 3.52959 19.5017 3.22434 19.3521C2.9191 19.2026 2.66522 18.9656 2.49495 18.6714L1.80923 17.4714C1.63352 17.1725 1.55256 16.8274 1.57705 16.4816C1.60153 16.1357 1.73031 15.8054 1.94638 15.5343L3.1978 13.94V11.06L1.91209 9.46572C1.69602 9.19457 1.56725 8.86428 1.54276 8.51844C1.51828 8.1726 1.59924 7.82746 1.77495 7.52858L2.46066 6.32858C2.63093 6.03438 2.88482 5.79744 3.19006 5.64787C3.4953 5.4983 3.83812 5.44286 4.17495 5.48858L6.1978 5.79715L8.73495 4.35715ZM8.34066 12.5C8.34066 13.1781 8.54174 13.841 8.91848 14.4048C9.29522 14.9686 9.83069 15.4081 10.4572 15.6676C11.0837 15.9271 11.773 15.995 12.4381 15.8627C13.1032 15.7304 13.7141 15.4039 14.1936 14.9244C14.6731 14.4449 14.9996 13.834 15.1319 13.1689C15.2642 12.5038 15.1963 11.8144 14.9368 11.1879C14.6773 10.5615 14.2379 10.026 13.674 9.64925C13.1102 9.27252 12.4473 9.07143 11.7692 9.07143C10.8599 9.07143 9.98785 9.43266 9.34487 10.0756C8.70188 10.7186 8.34066 11.5907 8.34066 12.5V12.5Z" stroke="#B5B3BC" stroke-width="1.71429" stroke-linecap="round" stroke-linejoin="round"/>
</svg>
