<svg width="24" height="24" viewBox="0 0 24 24" fill="none" xmlns="http://www.w3.org/2000/svg">
<path d="M18.8571 15.4286L22.2857 14.5714L23.1428 18" stroke="#F2F0FF" stroke-width="1.71429" stroke-linecap="round" stroke-linejoin="round"/>
<path d="M22.2857 14.5714C21.5243 16.729 20.1412 18.613 18.3108 19.9858C16.4804 21.3586 14.2845 22.1589 12 22.2857C9.88819 22.2861 7.82745 21.6364 6.09768 20.425C4.36791 19.2135 3.05295 17.499 2.33142 15.5143" stroke="#F2F0FF" stroke-width="1.71429" stroke-linecap="round" stroke-linejoin="round"/>
<path d="M5.14283 8.57143L1.71426 9.42857L0.857117 6" stroke="#F2F0FF" stroke-width="1.71429" stroke-linecap="round" stroke-linejoin="round"/>
<path d="M1.71423 9.42857C3.15423 5.48572 7.57709 1.71429 11.9999 1.71429C14.122 1.72025 16.1903 2.38244 17.9213 3.61008C19.6523 4.83771 20.9612 6.57069 21.6685 8.57143" stroke="#F2F0FF" stroke-width="1.71429" stroke-linecap="round" stroke-linejoin="round"/>
</svg>
