<?xml version="1.0" encoding="utf-8"?>
<!-- Generator: Adobe Illustrator 26.4.1, SVG Export Plug-In . SVG Version: 6.00 Build 0)  -->
<svg version="1.1" xmlns="http://www.w3.org/2000/svg" xmlns:xlink="http://www.w3.org/1999/xlink" x="0px" y="0px"
	 viewBox="0 0 290.42 290.37" style="enable-background:new 0 0 290.42 290.37;" xml:space="preserve">
<style type="text/css">
	.st0{fill:url(#SVGID_1_);}
	.st1{fill:none;}
	.st2{fill:#78519C;}
</style>
<g id="Livello_1">
	<linearGradient id="SVGID_1_" gradientUnits="userSpaceOnUse" x1="2.3608" y1="10.6605" x2="273.5996" y2="266.0289">
		<stop  offset="0.582" style="stop-color:#78519C"/>
		<stop  offset="0.886" style="stop-color:#B899C8"/>
		<stop  offset="1" style="stop-color:#9FBBE2"/>
	</linearGradient>
	<path class="st0" d="M145.26,0.01c35.43,0,70.87,0.02,106.3-0.01c8.06-0.01,15.45,2.13,22.08,6.67
		c6.79,4.65,11.61,10.89,14.45,18.65c1.62,4.42,2.33,9,2.33,13.68c0.01,51.03,0.02,102.06-0.02,153.09
		c-0.01,20.5-0.05,40.99-0.22,61.49c-0.06,7.54-2.63,14.38-6.99,20.53c-4.14,5.82-9.51,10.17-16.05,13.02
		c-3.92,1.71-8.03,2.93-12.33,2.96c-21.87,0.13-43.75,0.22-65.62,0.24c-49.93,0.04-99.87,0.01-149.8,0.05
		c-9.23,0.01-17.57-2.57-24.8-8.34c-7.63-6.1-12.37-14-13.94-23.67c-0.46-2.85-0.62-5.78-0.62-8.68C-0.01,179.54,0,109.39,0,39.24
		c0-9.45,2.73-18.01,8.85-25.29C16.6,4.75,26.57,0.05,38.63,0.03c21.77-0.04,43.54-0.01,65.3-0.01
		C117.71,0.01,131.48,0.01,145.26,0.01z M17.21,145.08c0,35.04,0,70.08,0,105.11c0,0.98-0.01,1.96,0.04,2.94
		c0.24,4.9,1.99,9.2,5.23,12.87c4.47,5.06,10.19,7.28,16.86,7.28c36.05,0.01,72.1,0.02,108.15,0.02c34.63,0.01,69.27,0,103.9,0.03
		c6.33,0.01,11.76-2.11,16.13-6.68c4.18-4.37,5.91-9.75,5.9-15.72c-0.04-19.81-0.14-39.61-0.16-59.42
		c-0.03-30.68-0.01-61.35-0.02-92.03c-0.01-20.68,0.05-41.36-0.08-62.04c-0.04-6.48-2.99-11.74-8.02-15.78
		c-4.11-3.3-8.89-4.59-14.12-4.59c-70.54,0.01-141.08,0.01-211.61,0.01c-0.47,0-0.95-0.01-1.42,0.01
		c-7.7,0.39-13.69,3.76-17.78,10.34c-2.26,3.62-3.02,7.63-3.02,11.87C17.22,74.57,17.21,109.82,17.21,145.08z"/>
	<path class="st1" d="M17.21,145.08c0-35.26,0.01-70.51-0.02-105.77c0-4.24,0.76-8.25,3.02-11.87c4.1-6.57,10.08-9.95,17.78-10.34
		c0.47-0.02,0.94-0.01,1.42-0.01c70.54,0,141.08,0,211.61-0.01c5.22,0,10.01,1.29,14.12,4.59c5.03,4.04,7.99,9.3,8.02,15.78
		c0.12,20.68,0.07,41.36,0.08,62.04c0.01,30.68-0.01,61.35,0.02,92.03c0.02,19.81,0.11,39.61,0.16,59.42
		c0.01,5.97-1.71,11.35-5.9,15.72c-4.37,4.57-9.8,6.68-16.13,6.68c-34.63-0.03-69.27-0.03-103.9-0.03
		c-36.05-0.01-72.1-0.02-108.15-0.02c-6.67,0-12.39-2.22-16.86-7.28c-3.24-3.67-4.99-7.97-5.23-12.87
		c-0.05-0.98-0.04-1.96-0.04-2.94C17.2,215.15,17.21,180.12,17.21,145.08z M123.15,154.19c-0.04,0-0.07,0-0.11,0
		c0.11,11.19,0.12,22.39,0.38,33.57c0.14,5.79,1.16,11.49,3.16,16.97c2.89,7.9,8.11,13.48,16.17,16.25
		c4.58,1.57,9.32,2.3,14.13,2.37c8.36,0.13,16.72,0.04,25.07,0.08c0.97,0,1.25-0.32,1.24-1.26c-0.03-6.87-0.04-13.74,0.01-20.61
		c0.01-1.16-0.43-1.39-1.47-1.38c-5.09,0.04-10.18,0.05-15.26,0c-1.88-0.02-3.78-0.14-5.64-0.39c-6.29-0.85-10.02-4.25-11.22-10.46
		c-0.52-2.69-0.8-5.48-0.81-8.22c-0.07-19.26-0.04-38.53-0.04-57.79c0-1.56,0-1.56,1.56-1.56c10.61,0,21.22,0,31.84,0
		c1.46,0,1.47-0.02,1.48-1.44c0-7.16,0-14.32,0-21.48c0-1.55,0-1.55-1.58-1.55c-10.58,0-21.15,0-31.73,0c-1.56,0-1.57,0-1.57-1.57
		c0-8.94,0-17.88,0-26.82c0-1.46-0.01-1.46-1.44-1.47c-7.56,0-15.12,0-22.68,0c-1.48,0-1.49,0.01-1.49,1.52
		c0,8.98-0.02,17.96,0.02,26.93c0,1.09-0.28,1.44-1.4,1.43c-4.83-0.06-9.67,0-14.5-0.04c-1.06-0.01-1.36,0.36-1.35,1.38
		c0.04,7.23,0.04,14.47,0,21.7c-0.01,1.09,0.31,1.45,1.42,1.44c4.4-0.05,8.79-0.02,13.19-0.02c2.62,0,2.62,0,2.62,2.57
		C123.15,134.27,123.15,144.23,123.15,154.19z"/>
	<path class="st2" d="M123.15,154.19c0-9.96,0-19.92,0-29.88c0-2.57,0-2.57-2.62-2.57c-4.4,0-8.8-0.03-13.19,0.02
		c-1.11,0.01-1.43-0.34-1.42-1.44c0.04-7.23,0.04-14.47,0-21.7c-0.01-1.03,0.29-1.39,1.35-1.38c4.83,0.05,9.67-0.01,14.5,0.04
		c1.12,0.01,1.41-0.34,1.4-1.43c-0.04-8.98-0.02-17.96-0.02-26.93c0-1.52,0-1.52,1.49-1.52c7.56,0,15.12,0,22.68,0
		c1.44,0,1.44,0.01,1.44,1.47c0,8.94,0,17.88,0,26.82c0,1.57,0,1.57,1.57,1.57c10.58,0,21.15,0,31.73,0c1.57,0,1.58,0,1.58,1.55
		c0,7.16,0,14.32,0,21.48c0,1.43-0.01,1.44-1.48,1.44c-10.61,0-21.22,0-31.84,0c-1.56,0-1.56,0-1.56,1.56
		c0,19.26-0.03,38.53,0.04,57.79c0.01,2.74,0.29,5.53,0.81,8.22c1.2,6.21,4.93,9.61,11.22,10.46c1.87,0.25,3.76,0.37,5.64,0.39
		c5.09,0.05,10.18,0.04,15.26,0c1.04-0.01,1.48,0.23,1.47,1.38c-0.05,6.87-0.04,13.74-0.01,20.61c0,0.94-0.28,1.27-1.24,1.26
		c-8.36-0.04-16.72,0.05-25.07-0.08c-4.8-0.07-9.55-0.8-14.13-2.37c-8.06-2.76-13.27-8.35-16.17-16.25
		c-2.01-5.48-3.03-11.18-3.16-16.97c-0.26-11.19-0.27-22.38-0.38-33.57C123.08,154.19,123.12,154.19,123.15,154.19z"/>
</g>
<g id="Livello_2">
</g>
</svg>
